<?xml version="1.0" encoding="UTF-8" standalone="no"?><!DOCTYPE svg PUBLIC "-//W3C//DTD SVG 1.1//EN" "http://www.w3.org/Graphics/SVG/1.1/DTD/svg11.dtd"><svg width="100%" height="100%" viewBox="0 0 3000 3000" version="1.1" xmlns="http://www.w3.org/2000/svg" style="fill-rule:evenodd;clip-rule:evenodd;stroke-linejoin:round;stroke-miterlimit:2;"><g id="Ebene1"><rect x="0" y="-0" width="3000" height="3000" style="fill:none;"/><rect id="Mute-Foyer---unmute-stage" x="1664" y="2048" width="1336" height="952" style="fill:#ffd99b;"/><rect x="0" y="1408" width="576" height="576" style="fill:#ff436f;"/><rect x="768" y="832" width="1472" height="576" style="fill:#ffb101;"/><rect x="640" y="2048" width="384" height="384" style="fill:#ffb101;"/><rect x="640" y="2624" width="384" height="376" style="fill:#ffb101;"/><rect x="0" y="2048" width="576" height="952" style="fill:#ffb101;"/><rect id="Seat1" x="1822.95" y="2793.92" width="92.141" height="46.07" style="fill:#006fba;"/><rect id="Seat2" x="1930.45" y="2793.92" width="92.141" height="46.07" style="fill:#006fba;"/><rect id="Seat3" x="2037.95" y="2792.25" width="92.141" height="45.818" style="fill:#006fba;"/><rect id="Seat4" x="2145.45" y="2792.25" width="92.141" height="45.818" style="fill:#006fba;"/><rect id="Seat5" x="2252.95" y="2792.25" width="92.141" height="45.818" style="fill:#006fba;"/><rect id="Seat6" x="2421.87" y="2792.25" width="92.141" height="45.818" style="fill:#006fba;"/><rect id="Seat7" x="2529.37" y="2792" width="92.141" height="46.07" style="fill:#006fba;"/><rect id="Seat8" x="2636.86" y="2792.25" width="92.141" height="45.818" style="fill:#006fba;"/><rect id="Seat9" x="2744.36" y="2792.25" width="92.141" height="45.818" style="fill:#006fba;"/><rect id="Seat10" x="2851.86" y="2792.25" width="92.141" height="45.818" style="fill:#006fba;"/><rect id="Seat11" x="1822.95" y="2864.15" width="92.141" height="45.818" style="fill:#006fba;"/><rect id="Seat12" x="1930.45" y="2863.9" width="92.141" height="46.07" style="fill:#006fba;"/><rect id="Seat13" x="2037.95" y="2864.15" width="92.141" height="45.818" style="fill:#006fba;"/><rect id="Seat14" x="2145.45" y="2864.39" width="92.141" height="45.818" style="fill:#006fba;"/><rect id="Seat15" x="2252.95" y="2864.15" width="92.141" height="45.818" style="fill:#006fba;"/><rect id="Seat16" x="2421.87" y="2864.28" width="92.141" height="45.818" style="fill:#006fba;"/><rect id="Seat17" x="2529.37" y="2864.03" width="92.141" height="46.07" style="fill:#006fba;"/><rect id="Seat18" x="2636.86" y="2864.28" width="92.141" height="45.818" style="fill:#006fba;"/><rect id="Seat19" x="2744.36" y="2864.28" width="92.141" height="45.818" style="fill:#006fba;"/><rect id="Seat20" x="2851.86" y="2864.39" width="92.141" height="45.818" style="fill:#006fba;"/><rect id="Seat21" x="2122.07" y="2936.29" width="92.141" height="45.818" style="fill:#006fba;"/><rect id="Seat22" x="2229.57" y="2936.04" width="92.141" height="46.07" style="fill:#006fba;"/><rect id="Seat23" x="2337.07" y="2936.29" width="92.141" height="45.818" style="fill:#006fba;"/><rect id="Seat24" x="2444.56" y="2936.53" width="92.141" height="45.818" style="fill:#006fba;"/><rect id="Seat25" x="2552.06" y="2936.29" width="92.141" height="45.818" style="fill:#006fba;"/><text x="156.234px" y="1481.32px" style="font-family:'ArialMT', 'Arial', sans-serif;font-size:36px;">Eingang / Kasse</text><text x="701.75px" y="2136px" style="font-family:'ArialMT', 'Arial', sans-serif;font-size:36px;">T<tspan x="719.75px 739.771px " y="2136px 2136px ">al</tspan>k 2</text><text x="701.75px" y="2715px" style="font-family:'ArialMT', 'Arial', sans-serif;font-size:36px;">T<tspan x="719.75px 739.771px " y="2715px 2715px ">al</tspan>k 3</text><text x="241.427px" y="2252.67px" style="font-family:'ArialMT', 'Arial', sans-serif;font-size:36px;">T<tspan x="259.427px 279.448px " y="2252.67px 2252.67px ">al</tspan>k 4</text><text x="241.427px" y="2536.67px" style="font-family:'ArialMT', 'Arial', sans-serif;font-size:36px;">T<tspan x="259.427px 279.448px " y="2536.67px 2536.67px ">al</tspan>k 4</text><text x="241.427px" y="2828.67px" style="font-family:'ArialMT', 'Arial', sans-serif;font-size:36px;">T<tspan x="259.427px 279.448px " y="2828.67px 2828.67px ">al</tspan>k 4</text><text x="831.156px" y="922.209px" style="font-family:'ArialMT', 'Arial', sans-serif;font-size:36px;">T<tspan x="849.156px 869.178px " y="922.209px 922.209px ">al</tspan>k / Museum</text></g></svg>