<?xml version="1.0" encoding="UTF-8" standalone="no"?><!DOCTYPE svg PUBLIC "-//W3C//DTD SVG 1.1//EN" "http://www.w3.org/Graphics/SVG/1.1/DTD/svg11.dtd"><svg width="100%" height="100%" viewBox="0 0 1500 1500" version="1.1" xmlns="http://www.w3.org/2000/svg" style="fill-rule:evenodd;clip-rule:evenodd;stroke-linejoin:round;stroke-miterlimit:2;"><g id="Ebene1"><rect x="-1500" y="-1500" width="3000" height="3000" style="fill:none;"/><rect id="Mute-Foyer---unmute-stage" x="164" y="548" width="1336" height="952" style="fill:#ffd99b;"/><rect x="-160" y="608" width="448" height="448" style="fill:#ff436f;"/><rect x="384" y="32" width="960" height="448" style="fill:#ffb101;"/><rect x="-160" y="128" width="576" height="384" style="fill:#ffb101;"/><rect id="Seat1" x="322.955" y="1253.92" width="92.141" height="46.07" style="fill:#006fba;"/><rect id="Seat2" x="430.452" y="1253.92" width="92.141" height="46.07" style="fill:#006fba;"/><rect id="Seat3" x="537.95" y="1252.25" width="92.141" height="45.818" style="fill:#006fba;"/><rect id="Seat4" x="645.447" y="1252.25" width="92.141" height="45.818" style="fill:#006fba;"/><rect id="Seat5" x="752.945" y="1252.25" width="92.141" height="45.818" style="fill:#006fba;"/><rect id="Seat6" x="921.869" y="1252.25" width="92.141" height="45.818" style="fill:#006fba;"/><rect id="Seat7" x="1029.37" y="1252" width="92.141" height="46.07" style="fill:#006fba;"/><rect id="Seat8" x="1136.86" y="1252.25" width="92.141" height="45.818" style="fill:#006fba;"/><rect id="Seat9" x="1244.36" y="1252.25" width="92.141" height="45.818" style="fill:#006fba;"/><rect id="Seat10" x="1351.86" y="1252.25" width="92.141" height="45.818" style="fill:#006fba;"/><rect id="Seat11" x="322.955" y="1344.15" width="92.141" height="45.818" style="fill:#006fba;"/><rect id="Seat12" x="430.452" y="1343.9" width="92.141" height="46.07" style="fill:#006fba;"/><rect id="Seat13" x="537.95" y="1344.15" width="92.141" height="45.818" style="fill:#006fba;"/><rect id="Seat14" x="645.447" y="1344.39" width="92.141" height="45.818" style="fill:#006fba;"/><rect id="Seat15" x="752.945" y="1344.15" width="92.141" height="45.818" style="fill:#006fba;"/><rect id="Seat16" x="921.869" y="1344.28" width="92.141" height="45.818" style="fill:#006fba;"/><rect id="Seat17" x="1029.37" y="1344.03" width="92.141" height="46.07" style="fill:#006fba;"/><rect id="Seat18" x="1136.86" y="1344.28" width="92.141" height="45.818" style="fill:#006fba;"/><rect id="Seat19" x="1244.36" y="1344.28" width="92.141" height="45.818" style="fill:#006fba;"/><rect id="Seat20" x="1351.86" y="1344.39" width="92.141" height="45.818" style="fill:#006fba;"/><rect id="Seat21" x="622.071" y="1436.29" width="92.141" height="45.818" style="fill:#006fba;"/><rect id="Seat22" x="729.568" y="1436.04" width="92.141" height="46.07" style="fill:#006fba;"/><rect id="Seat23" x="837.066" y="1436.29" width="92.141" height="45.818" style="fill:#006fba;"/><rect id="Seat24" x="944.563" y="1436.53" width="92.141" height="45.818" style="fill:#006fba;"/><rect id="Seat25" x="1052.06" y="1436.29" width="92.141" height="45.818" style="fill:#006fba;"/><g transform="matrix(0.188983,0,0,0.188983,-53.3264,499.384)"><text x="256px" y="1024px" style="font-family:'ArialMT', 'Arial', sans-serif;font-size:357.388px;">Eingang</text><text x="256px" y="1393.08px" style="font-family:'ArialMT', 'Arial', sans-serif;font-size:357.388px;">Kasse</text></g><text x="-2.25px" y="254.875px" style="font-family:'ArialMT', 'Arial', sans-serif;font-size:96px;">T<tspan x="45.75px 99.141px " y="254.875px 254.875px ">al</tspan>k 2</text><text x="484.516px" y="226.359px" style="font-family:'ArialMT', 'Arial', sans-serif;font-size:96px;">T<tspan x="532.516px 585.906px " y="226.359px 226.359px ">al</tspan>k 2 / Museum</text></g></svg>