<?xml version="1.0" encoding="UTF-8" standalone="no"?><!DOCTYPE svg PUBLIC "-//W3C//DTD SVG 1.1//EN" "http://www.w3.org/Graphics/SVG/1.1/DTD/svg11.dtd">
<svg id="RootSvg" width="100%" height="100%" viewBox="0 0 6000 6000" version="1.1" xmlns="http://www.w3.org/2000/svg" style="fill-rule:evenodd;clip-rule:evenodd;stroke-linejoin:round;stroke-miterlimit:2;">
<g id="Ebene1">
<rect x="0" y="-0" width="6000" height="6000" style="fill:none;"/>
<rect id="Mute-Foyer---unmute-stage" x="3328" y="4096" width="2672" height="1904" style="fill:#ffd99b;"/>
<rect class="roomentry" x="0" y="2816" width="1152" height="1152" style="fill:#ff436f;"/>
<rect class="room1" x="1536" y="1664" width="2944" height="1152" style="fill:#ffb101;"/>
<rect class="room2" x="1280" y="4096" width="768" height="768" style="fill:#ffb101;"/>
<rect class="room3" x="1280" y="5248" width="768" height="752" style="fill:#ffb101;"/>
<rect class="room4" x="0" y="4096" width="1152" height="1904" style="fill:#ffb101;"/>
<rect class="seat1" id="Seat1" x="3645.91" y="5587.84" width="184.281" height="92.141" style="fill:#006fba;"/>
<rect id="Seat2" x="3860.91" y="5587.84" width="184.281" height="92.141" style="fill:#006fba;"/>
<rect id="Seat3" x="4075.9" y="5584.51" width="184.281" height="91.635" style="fill:#006fba;"/>
<rect id="Seat4" x="4290.89" y="5584.51" width="184.281" height="91.635" style="fill:#006fba;"/>
<rect id="Seat5" x="4505.89" y="5584.51" width="184.281" height="91.635" style="fill:#006fba;"/>
<rect id="Seat6" x="4843.74" y="5584.51" width="184.281" height="91.635" style="fill:#006fba;"/>
<rect id="Seat7" x="5058.73" y="5584" width="184.281" height="92.141" style="fill:#006fba;"/>
<rect id="Seat8" x="5273.73" y="5584.51" width="184.281" height="91.635" style="fill:#006fba;"/>
<rect id="Seat9" x="5488.72" y="5584.51" width="184.281" height="91.635" style="fill:#006fba;"/>
<rect id="Seat10" x="5703.72" y="5584.51" width="184.281" height="91.635" style="fill:#006fba;"/>
<rect id="Seat11" x="3645.91" y="5728.31" width="184.281" height="91.635" style="fill:#006fba;"/>
<rect id="Seat12" x="3860.91" y="5727.8" width="184.281" height="92.141" style="fill:#006fba;"/>
<rect id="Seat13" x="4075.9" y="5728.31" width="184.281" height="91.635" style="fill:#006fba;"/>
<rect id="Seat14" x="4290.89" y="5728.79" width="184.281" height="91.635" style="fill:#006fba;"/>
<rect id="Seat15" x="4505.89" y="5728.31" width="184.281" height="91.635" style="fill:#006fba;"/>
<rect id="Seat16" x="4843.74" y="5728.56" width="184.281" height="91.635" style="fill:#006fba;"/>
<rect id="Seat17" x="5058.73" y="5728.05" width="184.281" height="92.141" style="fill:#006fba;"/>
<rect id="Seat18" x="5273.73" y="5728.56" width="184.281" height="91.635" style="fill:#006fba;"/>
<rect id="Seat19" x="5488.72" y="5728.56" width="184.281" height="91.635" style="fill:#006fba;"/>
<rect id="Seat20" x="5703.72" y="5728.79" width="184.281" height="91.635" style="fill:#006fba;"/>
<rect id="Seat21" x="4244.14" y="5872.59" width="184.281" height="91.635" style="fill:#006fba;"/>
<rect id="Seat22" x="4459.14" y="5872.08" width="184.281" height="92.141" style="fill:#006fba;"/>
<rect id="Seat23" x="4674.13" y="5872.59" width="184.281" height="91.635" style="fill:#006fba;"/>
<rect id="Seat24" x="4889.13" y="5873.07" width="184.281" height="91.635" style="fill:#006fba;"/>
<rect id="Seat25" x="5104.12" y="5872.59" width="184.281" height="91.635" style="fill:#006fba;"/><text x="312.469px" y="2962.63px" style="font-family:'ArialMT', 'Arial', sans-serif;font-size:72px;">Eingang / Kasse</text><text x="1403.5px" y="4272px" style="font-family:'ArialMT', 'Arial', sans-serif;font-size:72px;">T<tspan x="1439.5px 1479.54px " y="4272px 4272px ">al</tspan>k 2</text><text x="1403.5px" y="5430px" style="font-family:'ArialMT', 'Arial', sans-serif;font-size:72px;">T<tspan x="1439.5px 1479.54px " y="5430px 5430px ">al</tspan>k 3</text><text x="482.854px" y="4505.35px" style="font-family:'ArialMT', 'Arial', sans-serif;font-size:72px;">T<tspan x="518.854px 558.896px " y="4505.35px 4505.35px ">al</tspan>k 4</text><text x="482.854px" y="5073.35px" style="font-family:'ArialMT', 'Arial', sans-serif;font-size:72px;">T<tspan x="518.854px 558.896px " y="5073.35px 5073.35px ">al</tspan>k 4</text><text x="482.854px" y="5657.35px" style="font-family:'ArialMT', 'Arial', sans-serif;font-size:72px;">T<tspan x="518.854px 558.896px " y="5657.35px 5657.35px ">al</tspan>k 4</text><text x="1662.31px" y="1844.42px" style="font-family:'ArialMT', 'Arial', sans-serif;font-size:72px;">T<tspan x="1698.31px 1738.36px " y="1844.42px 1844.42px ">al</tspan>k / Museum</text></g></svg>