<?xml version="1.0" encoding="UTF-8" standalone="no"?><!DOCTYPE svg PUBLIC "-//W3C//DTD SVG 1.1//EN" "http://www.w3.org/Graphics/SVG/1.1/DTD/svg11.dtd">
<svg id="RootSvg" width="100%" height="100%" viewBox="0 0 6000 6000" version="1.1" xmlns="http://www.w3.org/2000/svg" xmlns:xlink="http://www.w3.org/1999/xlink" xml:space="preserve" style="fill-rule:evenodd;clip-rule:evenodd;stroke-miterlimit:2;">
<g id="Ebene1">
<rect x="0" y="-0" width="6000" height="6000" style="fill:none;"/>
<path id="stage" class="stage" d="M6000,2266.85c-0,-156.109 -126.74,-282.849 -282.849,-282.849l-2170.3,-0c-156.109,-0 -282.849,126.74 -282.849,282.849l0,2218.3c0,156.109 126.74,282.849 282.849,282.849l2170.3,0c156.109,0 282.849,-126.74 282.849,-282.849l-0,-2218.3Z" style="fill:#3b3b3b;"/>
<path id="room0" class="room0" d="M1198.9,3216.62c-0,-27.467 -22.3,-49.766 -49.767,-49.766l-924.467,-0c-27.467,-0 -49.766,22.299 -49.766,49.766l-0,732.467c-0,27.467 22.299,49.767 49.766,49.767l924.467,-0c27.467,-0 49.767,-22.3 49.767,-49.767l-0,-732.467Z" style="fill:#f26a44;"/>
<rect x="481.792" y="1931.27" width="896" height="576" style="fill:#007d06;"/>
<path id="Speaker" class="speaker" d="M5568,2222.36c0,-25.585 -20.771,-46.356 -46.356,-46.356l-1720.42,0c-25.584,0 -46.356,20.771 -46.356,46.356l0,227.288c0,25.585 20.772,46.356 46.356,46.356l1720.42,0c25.585,0 46.356,-20.771 46.356,-46.356l0,-227.288Z" style="fill:#ec1a4a;"/>
<path id="room1" class="room1" d="M2833.3,4517.69c-0,-54.003 -43.844,-97.846 -97.846,-97.846l-1184.31,-0c-54.003,-0 -97.846,43.843 -97.846,97.846l-0,504.308c-0,54.002 43.843,97.846 97.846,97.846l1184.31,-0c54.002,-0 97.846,-43.844 97.846,-97.846l-0,-504.308Z" style="fill:#f7db68;"/>
<path id="room2" class="room2" d="M3086.6,2263c-0,-53.615 -43.529,-97.144 -97.144,-97.144l-1185.71,0c-53.615,0 -97.143,43.529 -97.143,97.144l-0,505.713c-0,53.615 43.528,97.143 97.143,97.143l1185.71,0c53.615,0 97.144,-43.528 97.144,-97.143l-0,-505.713Z" style="fill:#a8216b;"/>
<path id="Seat14" class="seat14" d="M5322.67,3968c-53.167,-0.337 -96.228,-43.605 -96.228,-96.852c0,-53.455 43.399,-96.854 96.854,-96.854l147.851,-0c53.455,-0 96.854,43.399 96.854,96.854c0,53.455 -43.399,96.854 -96.854,96.854l-147.851,0l-0.626,-0.002Z" style="fill:#2e9598;"/>
<path id="Seat7" class="seat7" d="M3850.67,4608c-53.167,-0.337 -96.228,-43.605 -96.228,-96.852c0,-53.455 43.399,-96.854 96.854,-96.854l147.851,-0c53.455,-0 96.854,43.399 96.854,96.854c0,53.455 -43.399,96.854 -96.854,96.854l-147.851,-0l-0.626,-0.002Z" style="fill:#2e9598;"/>
<path id="Seat10" class="seat10" d="M4298.67,4609.71c-53.167,-0.336 -96.228,-43.605 -96.228,-96.852c0,-53.455 43.399,-96.854 96.854,-96.854l147.851,0c53.455,0 96.854,43.399 96.854,96.854c0,53.455 -43.399,96.854 -96.854,96.854l-147.851,0l-0.626,-0.002Z" style="fill:#2e9598;"/>
<path id="Seat6" class="seat6" d="M3850.67,4288c-53.167,-0.337 -96.228,-43.605 -96.228,-96.852c0,-53.455 43.399,-96.854 96.854,-96.854l147.851,-0c53.455,-0 96.854,43.399 96.854,96.854c0,53.455 -43.399,96.854 -96.854,96.854l-147.851,-0l-0.626,-0.002Z" style="fill:#2e9598;"/>
<path id="Seat9" class="seat9" d="M4298.67,4288c-53.167,-0.337 -96.228,-43.605 -96.228,-96.852c0,-53.455 43.399,-96.854 96.854,-96.854l147.851,-0c53.455,-0 96.854,43.399 96.854,96.854c0,53.455 -43.399,96.854 -96.854,96.854l-147.851,-0l-0.626,-0.002Z" style="fill:#2e9598;"/>
<text x="550.912px" y="3634.4px" style="font-family:'ArialRoundedMTBold', 'Arial Rounded MT Bold', sans-serif;font-size:144px;">Inf<tspan x="729.014px " y="3634.4px ">o</tspan></text>
<text x="1889.05px" y="4820.82px" style="font-family:'ArialRoundedMTBold', 'Arial Rounded MT Bold', sans-serif;font-size:144px;">R<tspan x="1990.72px 2076.29px " y="4820.82px 4820.82px ">au</tspan>m 1</text><text x="2132.19px" y="2566.83px" style="font-family:'ArialRoundedMTBold', 'Arial Rounded MT Bold', sans-serif;font-size:144px;">R<tspan x="2233.86px 2319.43px " y="2566.83px 2566.83px ">au</tspan>m 2</text>
<text x="4299.57px" y="2387.54px" style="font-family:'ArialRoundedMTBold', 'Arial Rounded MT Bold', sans-serif;font-size:144px;">Zur Bühne</text>
<rect x="3755" y="2570" width="1813" height="1130" style="fill:#535353;"/>
<path id="Seat4" class="seat4" d="M3466.67,3695.4c-53.167,-0.336 -96.228,-43.605 -96.228,-96.852c0,-53.455 43.399,-96.854 96.854,-96.854l147.851,0c53.455,0 96.854,43.399 96.854,96.854c0,53.456 -43.399,96.854 -96.854,96.854l-147.851,0l-0.626,-0.002Z" style="fill:#2e9598;"/>
<path id="Seat20" class="seat20" d="M5712.45,3700.91c-53.167,-0.337 -96.228,-43.605 -96.228,-96.852c0,-53.456 43.399,-96.854 96.854,-96.854l147.851,-0c53.455,-0 96.854,43.398 96.854,96.854c0,53.455 -43.399,96.854 -96.854,96.854l-147.851,-0l-0.626,-0.002Z" style="fill:#2e9598;"/>
<path id="Seat19" class="seat19" d="M5706.67,3392c-53.167,-0.337 -96.228,-43.605 -96.228,-96.852c0,-53.455 43.399,-96.854 96.854,-96.854l147.851,-0c53.455,-0 96.854,43.399 96.854,96.854c0,53.455 -43.399,96.854 -96.854,96.854l-147.851,0l-0.626,-0.002Z" style="fill:#2e9598;"/>
<path id="Seat18" class="seat18" d="M5706.67,3072c-53.167,-0.337 -96.228,-43.605 -96.228,-96.852c0,-53.455 43.399,-96.854 96.854,-96.854l147.851,-0c53.455,-0 96.854,43.399 96.854,96.854c0,53.455 -43.399,96.854 -96.854,96.854l-147.851,0l-0.626,-0.002Z" style="fill:#2e9598;"/>
<path id="Seat17" class="seat17" d="M5706.67,2753.71c-53.167,-0.336 -96.228,-43.605 -96.228,-96.852c0,-53.455 43.399,-96.854 96.854,-96.854l147.851,-0c53.455,-0 96.854,43.399 96.854,96.854c0,53.455 -43.399,96.854 -96.854,96.854l-147.851,0l-0.626,-0.002Z" style="fill:#2e9598;"/>
<path id="Seat5" class="seat5" d="M3850.67,3969.71c-53.167,-0.336 -96.228,-43.605 -96.228,-96.852c0,-53.455 43.399,-96.854 96.854,-96.854l147.851,-0c53.455,-0 96.854,43.399 96.854,96.854c0,53.455 -43.399,96.854 -96.854,96.854l-147.851,0l-0.626,-0.002Z" style="fill:#2e9598;"/>
<path id="Seat8" class="seat8" d="M4298.67,3969.71c-53.167,-0.336 -96.228,-43.605 -96.228,-96.852c0,-53.455 43.399,-96.854 96.854,-96.854l147.851,-0c53.455,-0 96.854,43.399 96.854,96.854c0,53.455 -43.399,96.854 -96.854,96.854l-147.851,0l-0.626,-0.002Z" style="fill:#2e9598;"/>
<path id="Seat11" class="seat11" d="M4875.67,3969.71c-53.167,-0.336 -96.228,-43.605 -96.228,-96.852c0,-53.455 43.399,-96.854 96.854,-96.854l147.851,-0c53.455,-0 96.854,43.399 96.854,96.854c0,53.455 -43.399,96.854 -96.854,96.854l-147.851,0l-0.626,-0.002Z" style="fill:#2e9598;"/>
<path id="Seat12" class="seat12" d="M4874.67,4289.71c-53.167,-0.336 -96.228,-43.605 -96.228,-96.852c0,-53.455 43.399,-96.854 96.854,-96.854l147.851,-0c53.455,-0 96.854,43.399 96.854,96.854c0,53.455 -43.399,96.854 -96.854,96.854l-147.851,0l-0.626,-0.002Z" style="fill:#2e9598;"/>
<path id="Seat15" class="seat15" d="M5322.67,4289.71c-53.167,-0.336 -96.228,-43.605 -96.228,-96.852c0,-53.455 43.399,-96.854 96.854,-96.854l147.851,-0c53.455,-0 96.854,43.399 96.854,96.854c0,53.455 -43.399,96.854 -96.854,96.854l-147.851,0l-0.626,-0.002Z" style="fill:#2e9598;"/>
<path id="Seat13" class="seat13" d="M4874.67,4609.71c-53.167,-0.336 -96.228,-43.605 -96.228,-96.852c0,-53.455 43.399,-96.854 96.854,-96.854l147.851,0c53.455,0 96.854,43.399 96.854,96.854c0,53.455 -43.399,96.854 -96.854,96.854l-147.851,0l-0.626,-0.002Z" style="fill:#2e9598;"/>
<path id="Seat16" class="seat16" d="M5322.67,4608c-53.167,-0.337 -96.228,-43.605 -96.228,-96.852c0,-53.455 43.399,-96.854 96.854,-96.854l147.851,-0c53.455,-0 96.854,43.399 96.854,96.854c0,53.455 -43.399,96.854 -96.854,96.854l-147.851,-0l-0.626,-0.002Z" style="fill:#2e9598;"/>
<path id="Seat3" class="seat3" d="M3466.67,3393.71c-53.167,-0.336 -96.228,-43.605 -96.228,-96.852c0,-53.455 43.399,-96.854 96.854,-96.854l147.851,-0c53.455,-0 96.854,43.399 96.854,96.854c0,53.455 -43.399,96.854 -96.854,96.854l-147.851,0l-0.626,-0.002Z" style="fill:#2e9598;"/>
<path id="Seat2" class="seat2" d="M3466.67,3072c-53.167,-0.337 -96.228,-43.605 -96.228,-96.852c0,-53.455 43.399,-96.854 96.854,-96.854l147.851,-0c53.455,-0 96.854,43.399 96.854,96.854c0,53.455 -43.399,96.854 -96.854,96.854l-147.851,0l-0.626,-0.002Z" style="fill:#2e9598;"/>
<path id="Seat1" class="seat1" d="M3466.67,2753.71c-53.167,-0.336 -96.228,-43.605 -96.228,-96.852c0,-53.455 43.399,-96.854 96.854,-96.854l147.851,-0c53.455,-0 96.854,43.399 96.854,96.854c0,53.455 -43.399,96.854 -96.854,96.854l-147.851,0l-0.626,-0.002Z" style="fill:#2e9598;"/>
<text x="3433.97px" y="2679.85px" style="font-family:'ArialRoundedMTBold', 'Arial Rounded MT Bold', sans-serif;font-size:64px;">1a</text><text x="3563.97px" y="2680.1px" style="font-family:'ArialRoundedMTBold', 'Arial Rounded MT Bold', sans-serif;font-size:64px;">1b</text><text x="3433.97px" y="2999.85px" style="font-family:'ArialRoundedMTBold', 'Arial Rounded MT Bold', sans-serif;font-size:64px;">2a</text><text x="3563.97px" y="3000.1px" style="font-family:'ArialRoundedMTBold', 'Arial Rounded MT Bold', sans-serif;font-size:64px;">2b</text><text x="3433.97px" y="3319.85px" style="font-family:'ArialRoundedMTBold', 'Arial Rounded MT Bold', sans-serif;font-size:64px;">3a</text><text x="3563.97px" y="3320.1px" style="font-family:'ArialRoundedMTBold', 'Arial Rounded MT Bold', sans-serif;font-size:64px;">3b</text><text x="3433.97px" y="3625.35px" style="font-family:'ArialRoundedMTBold', 'Arial Rounded MT Bold', sans-serif;font-size:64px;">4a</text><text x="3563.97px" y="3625.6px" style="font-family:'ArialRoundedMTBold', 'Arial Rounded MT Bold', sans-serif;font-size:64px;">4b</text><text x="3821.97px" y="3895.51px" style="font-family:'ArialRoundedMTBold', 'Arial Rounded MT Bold', sans-serif;font-size:64px;">5a</text><text x="3951.97px" y="3895.51px" style="font-family:'ArialRoundedMTBold', 'Arial Rounded MT Bold', sans-serif;font-size:64px;">5b</text><text x="3821.97px" y="4214.76px" style="font-family:'ArialRoundedMTBold', 'Arial Rounded MT Bold', sans-serif;font-size:64px;">6a</text><text x="3951.97px" y="4215.01px" style="font-family:'ArialRoundedMTBold', 'Arial Rounded MT Bold', sans-serif;font-size:64px;">6b</text><text x="3821.97px" y="4536.26px" style="font-family:'ArialRoundedMTBold', 'Arial Rounded MT Bold', sans-serif;font-size:64px;">7a</text><text x="3951.97px" y="4536.51px" style="font-family:'ArialRoundedMTBold', 'Arial Rounded MT Bold', sans-serif;font-size:64px;">7b</text><text x="4267.97px" y="3896.51px" style="font-family:'ArialRoundedMTBold', 'Arial Rounded MT Bold', sans-serif;font-size:64px;">8a</text><text x="4397.97px" y="3896.51px" style="font-family:'ArialRoundedMTBold', 'Arial Rounded MT Bold', sans-serif;font-size:64px;">8b</text><text x="4267.97px" y="4214.76px" style="font-family:'ArialRoundedMTBold', 'Arial Rounded MT Bold', sans-serif;font-size:64px;">9a</text><text x="4397.97px" y="4215.01px" style="font-family:'ArialRoundedMTBold', 'Arial Rounded MT Bold', sans-serif;font-size:64px;">9b</text><text x="4257.97px" y="4536.26px" style="font-family:'ArialRoundedMTBold', 'Arial Rounded MT Bold', sans-serif;font-size:64px;">10a</text><text x="4377.97px" y="4536.51px" style="font-family:'ArialRoundedMTBold', 'Arial Rounded MT Bold', sans-serif;font-size:64px;">10b</text><text x="4827.97px" y="3892.51px" style="font-family:'ArialRoundedMTBold', 'Arial Rounded MT Bold', sans-serif;font-size:64px;">11a</text><text x="4957.97px" y="3892.51px" style="font-family:'ArialRoundedMTBold', 'Arial Rounded MT Bold', sans-serif;font-size:64px;">11b</text><text x="5284.97px" y="3894.51px" style="font-family:'ArialRoundedMTBold', 'Arial Rounded MT Bold', sans-serif;font-size:64px;">14a</text><text x="5404.97px" y="3894.51px" style="font-family:'ArialRoundedMTBold', 'Arial Rounded MT Bold', sans-serif;font-size:64px;">14b</text><text x="5284.97px" y="4214.76px" style="font-family:'ArialRoundedMTBold', 'Arial Rounded MT Bold', sans-serif;font-size:64px;">15a</text><text x="5404.97px" y="4215.01px" style="font-family:'ArialRoundedMTBold', 'Arial Rounded MT Bold', sans-serif;font-size:64px;">15b</text><text x="5284.97px" y="4536.26px" style="font-family:'ArialRoundedMTBold', 'Arial Rounded MT Bold', sans-serif;font-size:64px;">16a</text><text x="5404.97px" y="4536.51px" style="font-family:'ArialRoundedMTBold', 'Arial Rounded MT Bold', sans-serif;font-size:64px;">16b</text><text x="5656.54px" y="2679.85px" style="font-family:'ArialRoundedMTBold', 'Arial Rounded MT Bold', sans-serif;font-size:64px;">17a</text><text x="5786.54px" y="2680.1px" style="font-family:'ArialRoundedMTBold', 'Arial Rounded MT Bold', sans-serif;font-size:64px;">17b</text><text x="5666.54px" y="2999.85px" style="font-family:'ArialRoundedMTBold', 'Arial Rounded MT Bold', sans-serif;font-size:64px;">18a</text><text x="5786.54px" y="3000.1px" style="font-family:'ArialRoundedMTBold', 'Arial Rounded MT Bold', sans-serif;font-size:64px;">18b</text><text x="5666.54px" y="3319.85px" style="font-family:'ArialRoundedMTBold', 'Arial Rounded MT Bold', sans-serif;font-size:64px;">19a</text><text x="5786.54px" y="3320.1px" style="font-family:'ArialRoundedMTBold', 'Arial Rounded MT Bold', sans-serif;font-size:64px;">19b</text><text x="5666.54px" y="3625.35px" style="font-family:'ArialRoundedMTBold', 'Arial Rounded MT Bold', sans-serif;font-size:64px;">20a</text><text x="5786.54px" y="3625.6px" style="font-family:'ArialRoundedMTBold', 'Arial Rounded MT Bold', sans-serif;font-size:64px;">20b</text><text x="4827.97px" y="4214.76px" style="font-family:'ArialRoundedMTBold', 'Arial Rounded MT Bold', sans-serif;font-size:64px;">12a</text><text x="4957.97px" y="4215.01px" style="font-family:'ArialRoundedMTBold', 'Arial Rounded MT Bold', sans-serif;font-size:64px;">12b</text><text x="4827.97px" y="4536.26px" style="font-family:'ArialRoundedMTBold', 'Arial Rounded MT Bold', sans-serif;font-size:64px;">13a</text><text x="4957.97px" y="4536.51px" style="font-family:'ArialRoundedMTBold', 'Arial Rounded MT Bold', sans-serif;font-size:64px;">13b</text>
<g opacity="0.28">
<path d="M1942.41,3529.59c-10.039,-0 -18.654,3.876 -25.847,11.615c-7.189,7.745 -10.784,17.138 -10.784,28.18c-0,10.287 3.653,19.243 10.961,26.868c7.308,7.627 15.747,11.44 25.315,11.44c10.391,-0 19.238,-3.797 26.546,-11.397c7.308,-7.595 10.964,-17.03 10.964,-28.311c-0,-10.696 -3.656,-19.769 -10.964,-27.217c-7.308,-7.448 -16.038,-11.178 -26.191,-11.178Zm-48.726,-173.431l12.445,0l0,161.567c0,1.638 -0.071,4.43 -0.218,8.378c-0.146,3.947 -0.359,8.319 -0.651,13.112c4.273,-6.84 9.631,-12.072 16.072,-15.699c6.444,-3.628 13.62,-5.441 21.531,-5.441c14.348,0 26.177,4.887 35.492,14.649c9.31,9.763 13.969,22.045 13.969,36.835c-0,13.687 -4.805,25.385 -14.411,35.088c-9.607,9.706 -21.291,14.558 -35.05,14.558c-7.968,-0 -15.16,-1.799 -21.572,-5.392c-6.414,-3.598 -11.758,-8.816 -16.031,-15.66l0.519,18.563l-12.095,0l0,-260.558Z" style="fill:#231f20;fill-rule:nonzero;"/>
<path d="M2059.95,3528.96c-9.831,-0 -18.274,3.768 -25.325,11.305c-7.054,7.535 -10.58,16.903 -10.58,28.102c-0,11.202 3.526,20.556 10.58,28.063c7.051,7.507 15.875,11.256 26.469,11.256c10.531,-0 19.283,-3.783 26.25,-11.348c6.961,-7.565 10.448,-17.242 10.448,-29.027c-0,-10.963 -3.618,-20.093 -10.842,-27.395c-7.231,-7.305 -16.229,-10.956 -27,-10.956Zm0.332,-11.823c13.915,-0 25.774,4.935 35.57,14.795c9.798,9.863 14.698,21.673 14.698,35.423c-0,14.459 -4.8,26.771 -14.386,36.923c-9.595,10.156 -21.262,15.231 -35.007,15.231c-14.037,-0 -25.91,-4.972 -35.62,-14.927c-9.709,-9.945 -14.56,-21.946 -14.56,-35.998c0,-14.103 4.868,-26.203 14.606,-36.303c9.737,-10.092 21.305,-15.144 34.699,-15.144Z" style="fill:#231f20;fill-rule:nonzero;"/>
<path d="M2179.51,3529.59c-10.384,-0 -19.233,3.818 -26.535,11.441c-7.304,7.627 -10.955,17.08 -10.955,28.354c0,10.754 3.651,19.832 10.955,27.221c7.302,7.391 16.029,11.087 26.179,11.087c9.855,-0 18.424,-3.899 25.696,-11.703c7.275,-7.799 10.916,-17.193 10.916,-28.18c-0,-10.225 -3.657,-19.152 -10.959,-26.779c-7.304,-7.623 -15.739,-11.441 -25.297,-11.441Zm37.301,9.992l-1.22,-19.327l12.31,0l-0,96.462l-12.31,0l1.051,-18.754c-3.867,6.906 -9.021,12.177 -15.456,15.801c-6.443,3.623 -13.877,5.442 -22.308,5.442c-14.168,-0 -25.984,-4.852 -35.434,-14.558c-9.457,-9.703 -14.184,-21.635 -14.184,-35.789c-0,-14.498 4.815,-26.588 14.447,-36.265c9.626,-9.675 21.704,-14.518 36.221,-14.518c7.783,0 14.868,1.879 21.252,5.623c6.379,3.741 11.591,9.036 15.631,15.883Z" style="fill:#231f20;fill-rule:nonzero;"/>
<path d="M2266.64,3489.14l12.447,0l0,31.117l18.359,0l0,12.446l-18.359,0l0,84.016l-12.447,0l-0,-84.016l-18.358,0l-0,-12.446l18.358,0l-0,-31.117Z" style="fill:#231f20;fill-rule:nonzero;"/>
<path d="M1942.06,3644.84c-9.568,-0 -18.007,3.818 -25.315,11.441c-7.308,7.627 -10.961,16.551 -10.961,26.779c-0,11.103 3.578,20.526 10.741,28.266c7.162,7.746 15.793,11.615 25.89,11.615c10.153,0 18.883,-3.694 26.191,-11.085c7.308,-7.391 10.964,-16.468 10.964,-27.22c-0,-11.335 -3.656,-20.8 -10.964,-28.4c-7.308,-7.595 -16.155,-11.396 -26.546,-11.396Zm-48.371,-9.025l12.095,0l-0.519,18.65c4.331,-6.9 9.705,-12.143 16.117,-15.741c6.413,-3.598 13.575,-5.399 21.486,-5.399c13.759,0 25.443,4.843 35.05,14.521c9.606,9.673 14.411,21.358 14.411,35.037c-0,14.796 -4.659,27.092 -13.969,36.883c-9.315,9.792 -21.144,14.69 -35.492,14.69c-7.911,-0 -15.087,-1.83 -21.531,-5.481c-6.441,-3.656 -11.799,-8.902 -16.072,-15.747c0.292,4.818 0.505,9.208 0.651,13.171c0.147,3.968 0.218,6.796 0.218,8.499l0,28.807l-12.445,0l0,-127.89Z" style="fill:#231f20;fill-rule:nonzero;"/>
<path d="M2096.85,3676.89c-2.343,-10.668 -6.67,-18.727 -12.985,-24.183c-6.32,-5.451 -14.509,-8.176 -24.568,-8.176c-9.303,-0 -17.228,2.96 -23.775,8.871c-6.554,5.919 -10.474,13.744 -11.756,23.488l73.084,0Zm13.692,10.581l-87.127,-0c0.583,10.415 4.351,18.926 11.315,25.544c6.961,6.621 15.528,9.927 25.71,9.927c7.313,0 13.846,-1.877 19.606,-5.629c5.763,-3.756 10.222,-9.035 13.381,-15.842l14.004,0c-4.449,10.723 -10.698,18.955 -18.744,24.691c-8.046,5.737 -17.365,8.605 -27.955,8.605c-14.514,-0 -26.539,-4.863 -36.078,-14.592c-9.537,-9.729 -14.308,-21.917 -14.308,-36.572c0,-14.53 4.755,-26.647 14.271,-36.347c9.51,-9.699 21.441,-14.55 35.784,-14.55c15.042,-0 27.163,4.973 36.353,14.92c9.188,9.949 13.788,23.109 13.788,39.489l-0,0.356Z" style="fill:#231f20;fill-rule:nonzero;"/>
<path d="M2176.74,3644.22c-9.831,-0 -18.277,3.768 -25.326,11.305c-7.056,7.534 -10.581,16.903 -10.581,28.101c-0,11.202 3.525,20.557 10.581,28.063c7.049,7.507 15.874,11.255 26.468,11.255c10.532,0 19.282,-3.782 26.251,-11.348c6.962,-7.563 10.448,-17.24 10.448,-29.024c-0,-10.963 -3.618,-20.096 -10.845,-27.399c-7.226,-7.301 -16.227,-10.953 -26.996,-10.953Zm0.331,-11.825c13.915,0 25.773,4.934 35.569,14.796c9.796,9.867 14.697,21.676 14.697,35.424c0,14.459 -4.798,26.771 -14.386,36.921c-9.591,10.157 -21.26,15.233 -35.005,15.233c-14.037,-0 -25.91,-4.973 -35.619,-14.925c-9.708,-9.948 -14.562,-21.947 -14.562,-35.997c-0,-14.106 4.867,-26.208 14.605,-36.307c9.738,-10.094 21.306,-15.145 34.701,-15.145Z" style="fill:#231f20;fill-rule:nonzero;"/>
<path d="M2299.08,3644.84c-9.568,-0 -18.009,3.818 -25.316,11.441c-7.306,7.627 -10.959,16.551 -10.959,26.779c0,11.103 3.578,20.526 10.739,28.266c7.163,7.746 15.793,11.615 25.889,11.615c10.154,0 18.887,-3.694 26.194,-11.085c7.306,-7.391 10.964,-16.468 10.964,-27.22c0,-11.335 -3.658,-20.8 -10.964,-28.4c-7.307,-7.595 -16.157,-11.396 -26.547,-11.396Zm-48.371,-9.025l12.096,0l-0.52,18.65c4.331,-6.9 9.703,-12.143 16.117,-15.741c6.412,-3.598 13.575,-5.399 21.485,-5.399c13.758,0 25.443,4.843 35.05,14.521c9.608,9.673 14.41,21.358 14.41,35.037c0,14.796 -4.656,27.092 -13.968,36.883c-9.315,9.792 -21.144,14.69 -35.492,14.69c-7.91,-0 -15.087,-1.83 -21.53,-5.481c-6.441,-3.656 -11.799,-8.902 -16.072,-15.747c0.292,4.818 0.505,9.208 0.651,13.171c0.146,3.968 0.218,6.796 0.218,8.499l0,28.807l-12.445,0l0,-127.89Z" style="fill:#231f20;fill-rule:nonzero;"/>
<rect x="2370.8" y="3604.08" width="12.446" height="127.889" style="fill:#231f20;fill-rule:nonzero;"/>
<path d="M2489.86,3676.89c-2.343,-10.668 -6.673,-18.727 -12.989,-24.183c-6.316,-5.451 -14.505,-8.176 -24.565,-8.176c-9.302,-0 -17.227,2.96 -23.775,8.871c-6.553,5.919 -10.473,13.744 -11.757,23.488l73.086,0Zm13.691,10.581l-87.126,-0c0.582,10.415 4.351,18.926 11.314,25.544c6.962,6.621 15.529,9.927 25.709,9.927c7.314,0 13.848,-1.877 19.608,-5.629c5.763,-3.756 10.222,-9.035 13.381,-15.842l14.003,0c-4.449,10.723 -10.699,18.955 -18.744,24.691c-8.046,5.737 -17.367,8.605 -27.957,8.605c-14.512,-0 -26.536,-4.863 -36.075,-14.592c-9.539,-9.729 -14.309,-21.917 -14.309,-36.572c0,-14.53 4.755,-26.647 14.269,-36.347c9.511,-9.699 21.441,-14.55 35.785,-14.55c15.044,-0 27.166,4.973 36.353,14.92c9.189,9.949 13.789,23.109 13.789,39.489l0,0.356Z" style="fill:#231f20;fill-rule:nonzero;"/>
<path d="M1942.06,3782.69c-9.568,-0 -18.007,3.816 -25.315,11.441c-7.308,7.627 -10.961,16.556 -10.961,26.779c-0,11.104 3.578,20.526 10.741,28.268c7.162,7.745 15.793,11.614 25.89,11.614c10.153,0 18.883,-3.694 26.191,-11.085c7.308,-7.388 10.964,-16.468 10.964,-27.221c-0,-11.334 -3.656,-20.8 -10.964,-28.4c-7.308,-7.594 -16.155,-11.396 -26.546,-11.396Zm-48.371,-9.022l12.095,-0l-0.519,18.648c4.331,-6.899 9.705,-12.144 16.117,-15.742c6.413,-3.597 13.575,-5.396 21.486,-5.396c13.759,-0 25.443,4.841 35.05,14.516c9.606,9.675 14.411,21.36 14.411,35.042c-0,14.794 -4.659,27.09 -13.969,36.881c-9.315,9.793 -21.144,14.689 -35.492,14.689c-7.911,-0 -15.087,-1.829 -21.531,-5.48c-6.441,-3.656 -11.799,-8.902 -16.072,-15.749c0.292,4.819 0.505,9.209 0.651,13.172c0.147,3.968 0.218,6.796 0.218,8.497l0,49.969l-12.445,-0l0,-149.047Z" style="fill:#231f20;fill-rule:nonzero;"/>
<path d="M2050.49,3771.8l0,13.379c-7.788,0.705 -13.37,3.033 -16.733,6.987c-3.365,3.957 -5.047,10.385 -5.047,19.29l-0,58.36l-12.447,0l0,-96.462l11.561,-0l0,10.96c3.16,-4.32 6.53,-7.469 10.103,-9.454c3.569,-1.982 7.76,-3.002 12.563,-3.06Z" style="fill:#231f20;fill-rule:nonzero;"/>
<path d="M2113.3,3782.06c-9.831,0 -18.275,3.769 -25.326,11.305c-7.056,7.535 -10.58,16.903 -10.58,28.101c-0,11.201 3.524,20.557 10.58,28.064c7.051,7.506 15.874,11.254 26.468,11.254c10.53,0 19.282,-3.781 26.249,-11.347c6.964,-7.565 10.45,-17.24 10.45,-29.025c-0,-10.965 -3.618,-20.097 -10.843,-27.398c-7.229,-7.303 -16.23,-10.954 -26.998,-10.954Zm0.331,-11.823c13.916,-0 25.773,4.934 35.569,14.793c9.798,9.866 14.698,21.675 14.698,35.425c0,14.458 -4.799,26.77 -14.387,36.923c-9.591,10.154 -21.26,15.231 -35.005,15.231c-14.037,0 -25.91,-4.973 -35.619,-14.928c-9.71,-9.946 -14.562,-21.946 -14.562,-35.995c-0,-14.106 4.867,-26.208 14.605,-36.306c9.738,-10.092 21.305,-15.143 34.701,-15.143Z" style="fill:#231f20;fill-rule:nonzero;"/>
<path d="M2185.1,3741.92l12.446,-0l0,20.226l-12.446,0l-0,-20.226Zm-0,31.428l12.446,-0l0,96.594c0,11.619 -1.609,19.684 -4.817,24.206c-3.213,4.518 -8.558,6.777 -16.035,6.777c-1.581,-0.12 -2.718,-0.179 -3.417,-0.179l-0,-11.642c4.55,-0 7.66,-0.798 9.324,-2.379c1.662,-1.592 2.499,-4.576 2.499,-8.955l-0,-104.422Z" style="fill:#231f20;fill-rule:nonzero;"/>
<path d="M2304.37,3814.74c-2.344,-10.666 -6.671,-18.727 -12.987,-24.182c-6.319,-5.45 -14.508,-8.179 -24.567,-8.179c-9.3,0 -17.226,2.962 -23.775,8.875c-6.554,5.917 -10.473,13.744 -11.756,23.486l73.085,0Zm13.692,10.579l-87.128,0c0.584,10.415 4.353,18.93 11.316,25.546c6.962,6.622 15.527,9.928 25.709,9.928c7.313,0 13.847,-1.877 19.607,-5.63c5.762,-3.753 10.222,-9.033 13.381,-15.839l14.005,0c-4.451,10.719 -10.699,18.952 -18.746,24.688c-8.046,5.737 -17.367,8.606 -27.955,8.606c-14.514,0 -26.537,-4.86 -36.078,-14.591c-9.538,-9.728 -14.306,-21.917 -14.306,-36.571c-0,-14.532 4.755,-26.649 14.269,-36.348c9.509,-9.7 21.441,-14.552 35.782,-14.552c15.045,-0 27.166,4.974 36.356,14.922c9.187,9.945 13.788,23.107 13.788,39.487l-0,0.354Z" style="fill:#231f20;fill-rule:nonzero;"/>
<path d="M2343.98,3741.92l12.449,-0l-0,76.152l34.918,-44.724l14.245,-0l-35.093,44.724l42.563,51.738l-15.502,0l-41.131,-50.249l-0,50.249l-12.449,0l-0,-127.89Z" style="fill:#231f20;fill-rule:nonzero;"/>
<path d="M2440.72,3742.23l12.446,-0l0,31.118l18.361,-0l-0,12.446l-18.361,0l0,84.016l-12.446,0l0,-84.016l-18.358,0l0,-12.446l18.358,-0l0,-31.118Z" style="fill:#231f20;fill-rule:nonzero;"/>
<path d="M2570.54,3639.86c-0,218.838 -177.404,396.242 -396.243,396.242c-218.839,-0 -396.243,-177.404 -396.243,-396.242c-0,-218.84 177.404,-396.243 396.243,-396.243c218.839,0 396.243,177.403 396.243,396.243Z" style="fill:none;stroke:#231f20;stroke-width:35.24px;"/></g></g></svg>