<?xml version="1.0" encoding="UTF-8" standalone="no"?><!DOCTYPE svg PUBLIC "-//W3C//DTD SVG 1.1//EN" "http://www.w3.org/Graphics/SVG/1.1/DTD/svg11.dtd"><svg id="RootSvg" width="100%" height="100%" viewBox="0 0 6000 6000" version="1.1" xmlns="http://www.w3.org/2000/svg"  style="fill-rule:evenodd;clip-rule:evenodd;stroke-linejoin:round;stroke-miterlimit:2;">
<g id="Ebene1">
<rect x="0" y="0" width="6000" height="6000" style="fill:none;"/>
<rect id="Mute-Foyer---unmute-stage" x="2560" y="8" width="3440" height="2680" style="fill:#ffd99b;"/>
<rect class="room2" x="0" y="2816" width="1152" height="1152" style="fill:#ff436f;"/>
<rect class="room3" x="0" y="0" width="2048" height="2688" style="fill:#ffb101;"/>
<rect class="speaker" id="Speaker" x="3000" y="326.689" width="384" height="1273.31" style="fill:#ffb101;"/>
<rect class="room4" x="1280" y="4096" width="768" height="768" style="fill:#ffb101;"/>
<rect class="room5" x="1280" y="5248" width="768" height="752" style="fill:#bbb101;"/>
<rect class="room6" x="0" y="4096" width="1152" height="1904" style="fill:#ffb101;"/>
<rect class="seat1" id="Seat1" x="5568" y="1344" width="365.794" height="250.687" style="fill:#006fba;"/>
<rect class="seat2" id="Seat2" x="2560" y="1344" width="365.794" height="250.687" style="fill:#006fba;"/>
<rect class="seat3" id="Seat3" x="2560" y="838.689" width="365.794" height="249.311" style="fill:#006fba;"/>
<rect class="seat4" id="Seat4" x="5577.1" y="326.689" width="365.794" height="249.311" style="fill:#006fba;"/>
<rect class="seat6" id="Seat6" x="3474.21" y="1670.69" width="365.794" height="249.311" style="fill:#006fba;"/>
<rect class="seat7" id="Seat7" x="3986.21" y="1670.69" width="365.794" height="250.687" style="fill:#006fba;"/>
<rect class="seat8" id="Seat8" x="4608" y="1670.69" width="365.794" height="249.311" style="fill:#006fba;"/>
<rect class="seat9" id="Seat9" x="5120" y="1670.69" width="365.794" height="249.311" style="fill:#006fba;"/>
<rect class="seat10" id="Seat10" x="4608" y="2438.69" width="365.794" height="249.311" style="fill:#006fba;"/>
<rect class="seat11" id="Seat11" x="5568" y="832" width="365.794" height="249.311" style="fill:#006fba;"/>
<rect class="seat12" id="Seat12" x="3474.21" y="2438.69" width="365.794" height="250.687" style="fill:#006fba;"/>
<rect class="seat13" id="Seat13" x="3986.21" y="2438.69" width="365.794" height="249.311" style="fill:#006fba;"/>
<rect class="seat14" id="Seat14" x="2560" y="326.689" width="365.794" height="249.311" style="fill:#006fba;"/>
<rect class="seat16" id="Seat16" x="3474.21" y="2054.69" width="365.794" height="249.311" style="fill:#006fba;"/>
<rect class="seat17" id="Seat17" x="3977.1" y="2048" width="365.794" height="250.687" style="fill:#006fba;"/>
<rect class="seat18" id="Seat18" x="4608" y="2054.69" width="365.794" height="249.311" style="fill:#006fba;"/>
<rect class="seat19" id="Seat19" x="5120" y="2054.69" width="365.794" height="249.311" style="fill:#006fba;"/>
<rect class="seat20" id="Seat20" x="5120" y="2438.69" width="365.794" height="249.311" style="fill:#006fba;"/>
<text x="312.469px" y="2962.63px" style="font-family:'ArialMT', 'Arial', sans-serif;font-size:72px;">Eingang / Kasse</text><text x="1403.5px" y="4272px" style="font-family:'ArialMT', 'Arial', sans-serif;font-size:72px;">T<tspan x="1439.5px 1479.54px " y="4272px 4272px ">al</tspan>k 2</text><text x="1403.5px" y="5430px" style="font-family:'ArialMT', 'Arial', sans-serif;font-size:72px;">T<tspan x="1439.5px 1479.54px " y="5430px 5430px ">al</tspan>k 3</text><text x="482.854px" y="4505.35px" style="font-family:'ArialMT', 'Arial', sans-serif;font-size:72px;">T<tspan x="518.854px 558.896px " y="4505.35px 4505.35px ">al</tspan>k 4</text><text x="482.854px" y="5073.35px" style="font-family:'ArialMT', 'Arial', sans-serif;font-size:72px;">T<tspan x="518.854px 558.896px " y="5073.35px 5073.35px ">al</tspan>k 4</text><text x="482.854px" y="5657.35px" style="font-family:'ArialMT', 'Arial', sans-serif;font-size:72px;">T<tspan x="518.854px 558.896px " y="5657.35px 5657.35px ">al</tspan>k 4</text><g><g><text x="62.312px" y="128px" style="font-family:'ArialMT', 'Arial', sans-serif;font-size:72px;">T<tspan x="98.312px 138.355px " y="128px 128px ">al</tspan>k / Museum</text></g></g><rect x="3456" y="326" width="2029.79" height="1273.31" style="fill:#00b101;"/></g></svg>