<?xml version="1.0" encoding="UTF-8" standalone="no"?><!DOCTYPE svg PUBLIC "-//W3C//DTD SVG 1.1//EN" "http://www.w3.org/Graphics/SVG/1.1/DTD/svg11.dtd"><svg width="100%" height="100%" viewBox="0 0 579 579" version="1.1" xmlns="http://www.w3.org/2000/svg" xmlns:xlink="http://www.w3.org/1999/xlink" xml:space="preserve" style="fill-rule:evenodd;clip-rule:evenodd;stroke-miterlimit:2;"><g><path d="M122.445,210.459c-7.22,0 -13.417,2.788 -18.59,8.354c-5.171,5.571 -7.757,12.327 -7.757,20.269c-0,7.399 2.628,13.841 7.884,19.325c5.256,5.486 11.326,8.228 18.208,8.228c7.474,0 13.837,-2.731 19.093,-8.197c5.257,-5.463 7.886,-12.249 7.886,-20.363c0,-7.693 -2.629,-14.219 -7.886,-19.576c-5.256,-5.357 -11.535,-8.04 -18.838,-8.04Zm-35.046,-124.741l8.951,-0l-0,116.208c-0,1.178 -0.051,3.186 -0.157,6.026c-0.105,2.839 -0.258,5.983 -0.468,9.431c3.073,-4.92 6.927,-8.683 11.56,-11.292c4.635,-2.609 9.796,-3.913 15.486,-3.913c10.32,0 18.828,3.515 25.528,10.536c6.696,7.022 10.047,15.856 10.047,26.494c-0,9.844 -3.456,18.258 -10.365,25.237c-6.91,6.981 -15.314,10.471 -25.21,10.471c-5.731,-0 -10.904,-1.294 -15.516,-3.878c-4.613,-2.588 -8.457,-6.341 -11.53,-11.264l0.373,13.352l-8.699,0l0,-187.408Z" style="fill:#fff;fill-rule:nonzero;"/><path d="M206.981,210.011c-7.071,-0 -13.144,2.71 -18.215,8.131c-5.074,5.42 -7.61,12.158 -7.61,20.213c0,8.057 2.536,14.785 7.61,20.184c5.071,5.4 11.418,8.096 19.038,8.096c7.574,0 13.869,-2.721 18.88,-8.162c5.007,-5.441 7.515,-12.401 7.515,-20.878c0,-7.885 -2.602,-14.452 -7.798,-19.704c-5.201,-5.254 -11.673,-7.88 -19.42,-7.88Zm0.239,-8.504c10.008,-0 18.538,3.55 25.584,10.642c7.047,7.094 10.571,15.588 10.571,25.478c0,10.4 -3.452,19.255 -10.347,26.557c-6.901,7.305 -15.293,10.955 -25.179,10.955c-10.096,0 -18.636,-3.576 -25.62,-10.736c-6.983,-7.153 -10.472,-15.785 -10.472,-25.892c0,-10.144 3.501,-18.847 10.505,-26.111c7.004,-7.259 15.324,-10.893 24.958,-10.893Z" style="fill:#fff;fill-rule:nonzero;"/><path d="M292.977,210.459c-7.469,0 -13.834,2.746 -19.086,8.229c-5.253,5.486 -7.879,12.285 -7.879,20.394c-0,7.735 2.626,14.264 7.879,19.579c5.252,5.316 11.529,7.974 18.83,7.974c7.088,0 13.251,-2.804 18.482,-8.417c5.232,-5.61 7.851,-12.366 7.851,-20.269c-0,-7.354 -2.63,-13.775 -7.882,-19.261c-5.254,-5.483 -11.321,-8.229 -18.195,-8.229Zm26.829,7.187l-0.878,-13.901l8.854,-0l0,69.381l-8.854,0l0.756,-13.489c-2.781,4.967 -6.488,8.758 -11.117,11.365c-4.634,2.606 -9.981,3.914 -16.045,3.914c-10.19,-0 -18.689,-3.49 -25.486,-10.471c-6.802,-6.979 -10.202,-15.561 -10.202,-25.741c0,-10.428 3.463,-19.124 10.391,-26.084c6.924,-6.959 15.611,-10.442 26.052,-10.442c5.598,0 10.694,1.351 15.286,4.044c4.588,2.691 8.337,6.499 11.243,11.424Z" style="fill:#fff;fill-rule:nonzero;"/><path d="M355.646,181.364l8.953,0l-0,22.381l13.205,-0l-0,8.952l-13.205,-0l-0,60.429l-8.953,0l-0,-60.429l-13.204,-0l-0,-8.952l13.204,-0l-0,-22.381Z" style="fill:#fff;fill-rule:nonzero;"/><path d="M122.19,293.354c-6.882,0 -12.952,2.746 -18.208,8.229c-5.256,5.486 -7.884,11.905 -7.884,19.261c-0,7.986 2.574,14.764 7.726,20.331c5.151,5.571 11.359,8.354 18.621,8.354c7.303,0 13.582,-2.657 18.838,-7.973c5.257,-5.316 7.886,-11.845 7.886,-19.578c0,-8.153 -2.629,-14.961 -7.886,-20.427c-5.256,-5.463 -11.619,-8.197 -19.093,-8.197Zm-34.791,-6.491l8.699,0l-0.373,13.414c3.115,-4.963 6.98,-8.734 11.592,-11.322c4.613,-2.588 9.764,-3.883 15.454,-3.883c9.896,-0 18.3,3.483 25.21,10.444c6.909,6.958 10.365,15.362 10.365,25.201c-0,10.642 -3.351,19.486 -10.047,26.528c-6.7,7.043 -15.208,10.566 -25.528,10.566c-5.69,0 -10.851,-1.316 -15.486,-3.942c-4.633,-2.63 -8.487,-6.403 -11.56,-11.326c0.21,3.465 0.363,6.623 0.468,9.473c0.106,2.854 0.157,4.888 0.157,6.113l-0,20.72l-8.951,-0l0,-91.986Z" style="fill:#fff;fill-rule:nonzero;"/><path d="M233.527,316.406c-1.685,-7.673 -4.797,-13.47 -9.339,-17.394c-4.546,-3.921 -10.436,-5.881 -17.671,-5.881c-6.691,0 -12.391,2.129 -17.1,6.381c-4.714,4.257 -7.534,9.885 -8.456,16.894l52.566,0Zm9.848,7.61l-62.666,0c0.419,7.491 3.129,13.613 8.138,18.373c5.007,4.762 11.169,7.14 18.492,7.14c5.26,0 9.959,-1.35 14.102,-4.049c4.145,-2.701 7.352,-6.498 9.624,-11.394l10.073,-0c-3.2,7.712 -7.695,13.633 -13.482,17.759c-5.787,4.126 -12.49,6.189 -20.107,6.189c-10.439,-0 -19.088,-3.498 -25.949,-10.495c-6.86,-6.998 -10.291,-15.764 -10.291,-26.305c0,-10.451 3.42,-19.166 10.264,-26.143c6.84,-6.976 15.422,-10.465 25.738,-10.465c10.819,0 19.537,3.577 26.147,10.731c6.609,7.156 9.917,16.622 9.917,28.403l0,0.256Z" style="fill:#fff;fill-rule:nonzero;"/><path d="M290.984,292.906c-7.071,0 -13.146,2.71 -18.216,8.131c-5.075,5.419 -7.611,12.158 -7.611,20.212c0,8.057 2.536,14.786 7.611,20.185c5.07,5.399 11.417,8.095 19.037,8.095c7.575,0 13.869,-2.72 18.881,-8.162c5.008,-5.44 7.515,-12.4 7.515,-20.876c-0,-7.885 -2.602,-14.454 -7.8,-19.707c-5.198,-5.251 -11.672,-7.878 -19.417,-7.878Zm0.238,-8.505c10.008,0 18.537,3.549 25.583,10.642c7.046,7.097 10.571,15.591 10.571,25.479c0,10.4 -3.451,19.255 -10.347,26.556c-6.899,7.305 -15.292,10.956 -25.178,10.956c-10.096,-0 -18.636,-3.577 -25.619,-10.735c-6.983,-7.155 -10.474,-15.785 -10.474,-25.891c-0,-10.146 3.501,-18.85 10.505,-26.114c7.004,-7.26 15.324,-10.893 24.959,-10.893Z" style="fill:#fff;fill-rule:nonzero;"/><path d="M378.982,293.354c-6.882,0 -12.953,2.746 -18.209,8.229c-5.255,5.486 -7.882,11.905 -7.882,19.261c-0,7.986 2.573,14.764 7.724,20.331c5.152,5.571 11.359,8.354 18.621,8.354c7.303,0 13.584,-2.657 18.84,-7.973c5.255,-5.316 7.886,-11.845 7.886,-19.578c0,-8.153 -2.631,-14.961 -7.886,-20.427c-5.256,-5.463 -11.621,-8.197 -19.094,-8.197Zm-34.791,-6.491l8.7,0l-0.374,13.414c3.115,-4.963 6.979,-8.734 11.592,-11.322c4.612,-2.588 9.764,-3.883 15.453,-3.883c9.896,-0 18.3,3.483 25.21,10.444c6.911,6.958 10.365,15.362 10.365,25.201c-0,10.642 -3.349,19.486 -10.047,26.528c-6.7,7.043 -15.208,10.566 -25.528,10.566c-5.689,0 -10.851,-1.316 -15.485,-3.942c-4.633,-2.63 -8.487,-6.403 -11.56,-11.326c0.21,3.465 0.363,6.623 0.468,9.473c0.105,2.854 0.157,4.888 0.157,6.113l-0,20.72l-8.951,-0l0,-91.986Z" style="fill:#fff;fill-rule:nonzero;"/><rect x="430.566" y="264.035" width="8.952" height="91.985" style="fill:#fff;fill-rule:nonzero;"/><path d="M516.197,316.406c-1.685,-7.673 -4.799,-13.47 -9.342,-17.394c-4.543,-3.921 -10.433,-5.881 -17.669,-5.881c-6.69,0 -12.39,2.129 -17.1,6.381c-4.713,4.257 -7.533,9.885 -8.456,16.894l52.567,0Zm9.848,7.61l-62.666,0c0.418,7.491 3.129,13.613 8.137,18.373c5.008,4.762 11.17,7.14 18.492,7.14c5.26,0 9.96,-1.35 14.103,-4.049c4.145,-2.701 7.352,-6.498 9.624,-11.394l10.072,-0c-3.2,7.712 -7.695,13.633 -13.482,17.759c-5.787,4.126 -12.491,6.189 -20.108,6.189c-10.438,-0 -19.086,-3.498 -25.947,-10.495c-6.861,-6.998 -10.292,-15.764 -10.292,-26.305c-0,-10.451 3.42,-19.166 10.263,-26.143c6.841,-6.976 15.422,-10.465 25.739,-10.465c10.82,0 19.539,3.577 26.147,10.731c6.609,7.156 9.918,16.622 9.918,28.403l-0,0.256Z" style="fill:#fff;fill-rule:nonzero;"/><path d="M122.19,392.502c-6.882,-0 -12.952,2.745 -18.208,8.229c-5.256,5.486 -7.884,11.908 -7.884,19.261c-0,7.987 2.574,14.764 7.726,20.332c5.151,5.571 11.359,8.354 18.621,8.354c7.303,-0 13.582,-2.657 18.838,-7.973c5.257,-5.314 7.886,-11.845 7.886,-19.579c0,-8.152 -2.629,-14.961 -7.886,-20.427c-5.256,-5.462 -11.619,-8.197 -19.093,-8.197Zm-34.791,-6.489l8.699,0l-0.373,13.413c3.115,-4.962 6.98,-8.735 11.592,-11.323c4.613,-2.587 9.764,-3.881 15.454,-3.881c9.896,0 18.3,3.482 25.21,10.441c6.909,6.959 10.365,15.363 10.365,25.204c-0,10.641 -3.351,19.485 -10.047,26.527c-6.7,7.044 -15.208,10.565 -25.528,10.565c-5.69,-0 -10.851,-1.315 -15.486,-3.941c-4.633,-2.63 -8.487,-6.403 -11.56,-11.328c0.21,3.466 0.363,6.624 0.468,9.474c0.106,2.854 0.157,4.888 0.157,6.112l-0,35.94l-8.951,0l0,-107.203Z" style="fill:#fff;fill-rule:nonzero;"/><path d="M200.18,384.67l-0,9.623c-5.602,0.507 -9.617,2.182 -12.036,5.026c-2.42,2.846 -3.63,7.469 -3.63,13.874l0,41.976l-8.952,-0l-0,-69.381l8.315,-0l-0,7.883c2.273,-3.107 4.697,-5.372 7.267,-6.8c2.567,-1.425 5.581,-2.159 9.036,-2.201Z" style="fill:#fff;fill-rule:nonzero;"/><path d="M245.355,392.055c-7.071,-0 -13.145,2.711 -18.216,8.131c-5.075,5.42 -7.61,12.158 -7.61,20.212c0,8.056 2.535,14.786 7.61,20.185c5.071,5.399 11.417,8.095 19.037,8.095c7.574,-0 13.869,-2.72 18.88,-8.162c5.009,-5.441 7.516,-12.4 7.516,-20.876c-0,-7.887 -2.602,-14.455 -7.799,-19.706c-5.199,-5.253 -11.673,-7.879 -19.418,-7.879Zm0.238,-8.504c10.009,-0 18.537,3.549 25.583,10.64c7.047,7.096 10.572,15.59 10.572,25.48c-0,10.399 -3.452,19.254 -10.348,26.557c-6.899,7.303 -15.292,10.955 -25.178,10.955c-10.096,-0 -18.636,-3.577 -25.619,-10.737c-6.984,-7.154 -10.474,-15.785 -10.474,-25.89c-0,-10.146 3.501,-18.85 10.505,-26.113c7.004,-7.259 15.324,-10.892 24.959,-10.892Z" style="fill:#fff;fill-rule:nonzero;"/><path d="M296.998,363.183l8.952,-0l0,14.548l-8.952,0l-0,-14.548Zm-0,22.605l8.952,-0l0,69.476c0,8.357 -1.157,14.158 -3.465,17.41c-2.311,3.25 -6.155,4.875 -11.533,4.875c-1.137,-0.087 -1.955,-0.129 -2.458,-0.129l-0,-8.374c3.273,-0 5.51,-0.574 6.707,-1.711c1.195,-1.145 1.797,-3.291 1.797,-6.441l-0,-75.106Z" style="fill:#fff;fill-rule:nonzero;"/><path d="M382.783,415.554c-1.686,-7.672 -4.798,-13.47 -9.341,-17.393c-4.545,-3.92 -10.435,-5.883 -17.67,-5.883c-6.689,-0 -12.39,2.13 -17.1,6.383c-4.714,4.256 -7.533,9.886 -8.456,16.893l52.567,0Zm9.848,7.609l-62.667,-0c0.42,7.491 3.131,13.615 8.139,18.374c5.007,4.763 11.168,7.141 18.491,7.141c5.26,-0 9.96,-1.35 14.103,-4.05c4.144,-2.699 7.352,-6.497 9.624,-11.392l10.073,-0c-3.201,7.71 -7.695,13.631 -13.483,17.757c-5.787,4.126 -12.491,6.19 -20.107,6.19c-10.439,-0 -19.087,-3.496 -25.949,-10.495c-6.86,-6.997 -10.29,-15.764 -10.29,-26.304c0,-10.452 3.42,-19.167 10.263,-26.143c6.84,-6.977 15.422,-10.467 25.737,-10.467c10.821,0 19.539,3.578 26.149,10.733c6.608,7.153 9.917,16.62 9.917,28.401l0,0.255Z" style="fill:#fff;fill-rule:nonzero;"/><path d="M411.275,363.183l8.954,-0l0,54.773l25.115,-32.168l10.246,-0l-25.241,32.168l30.614,37.213l-11.15,-0l-29.584,-36.142l0,36.142l-8.954,-0l-0,-91.986Z" style="fill:#fff;fill-rule:nonzero;"/><path d="M480.856,363.406l8.952,0l0,22.382l13.206,-0l0,8.952l-13.206,0l0,60.429l-8.952,-0l-0,-60.429l-13.204,0l0,-8.952l13.204,-0l-0,-22.382Z" style="fill:#fff;fill-rule:nonzero;"/><path d="M574.229,289.772c0,157.401 -127.599,285 -285,285c-157.402,-0 -285.001,-127.599 -285.001,-285c0,-157.402 127.599,-285 285.001,-285c157.401,-0 285,127.598 285,285Z" style="fill:none;stroke:#fff;stroke-width:8.46px;"/></g></svg>